<svg width="94" height="16" viewBox="0 0 94 16" fill="none" xmlns="http://www.w3.org/2000/svg">
<path d="M10.2367 5.64057C10.2367 6.50369 10.1057 7.22039 9.84366 7.79067C9.58164 8.36095 9.1732 8.87729 8.61833 9.33968L10.5372 15.4432H6.26015L4.82674 10.2645H4.295V15.4432H0.410932V1.08604H5.77464C7.31594 1.08604 8.44108 1.44824 9.15008 2.17265C9.87449 2.89706 10.2367 4.05303 10.2367 5.64057ZM4.8961 7.83691C5.29684 7.83691 5.58198 7.72132 5.75152 7.49012C5.92106 7.25893 6.00583 6.84278 6.00583 6.24167C6.00583 5.62515 5.92106 5.2013 5.75152 4.9701C5.58198 4.7235 5.30455 4.60019 4.91922 4.60019H4.295V7.83691H4.8961ZM19.8576 7.25893L19.742 12.0447C19.742 12.3375 19.8114 12.5379 19.9501 12.6458C20.1042 12.7382 20.3585 12.7845 20.713 12.7845L20.3663 15.5819C19.4723 15.6436 18.9791 15.6744 18.8866 15.6744C17.7461 15.6744 17.0216 15.2814 16.7134 14.4953H16.5978C16.0275 15.2814 15.149 15.6744 13.9622 15.6744C13.0528 15.6744 12.3515 15.3816 11.8583 14.7959C11.3805 14.2102 11.1416 13.4087 11.1416 12.3914C11.1416 11.1122 11.5346 10.2259 12.3207 9.73271C13.1222 9.23949 14.3783 8.91582 16.0892 8.76169V8.20682C16.0892 7.77526 15.8734 7.55948 15.4418 7.55948C14.702 7.55948 13.546 7.78297 11.9739 8.22994L11.3959 4.85451C13.3688 4.34588 15.0103 4.09156 16.3204 4.09156C17.6305 4.09156 18.5475 4.34588 19.0716 4.85451C19.5956 5.36313 19.8576 6.16461 19.8576 7.25893ZM15.3956 12.9694C15.9659 12.9694 16.251 12.6689 16.251 12.0678V10.9349C15.6807 11.012 15.2723 11.1353 15.0257 11.3048C14.7945 11.459 14.6789 11.7287 14.6789 12.114C14.6789 12.6843 14.9178 12.9694 15.3956 12.9694ZM25.234 0.461815C26.1896 0.461815 27.1914 0.508053 28.2395 0.600531L27.9158 3.97597C27.2222 3.8989 26.7136 3.86037 26.3899 3.86037C26.0817 3.86037 25.9276 3.99909 25.9276 4.27652V4.69267H27.8234L27.6384 7.55948H25.9738V15.4432H22.1129V7.55948H21.0956V4.69267H22.1129V3.5367C22.1129 1.48678 23.1532 0.461815 25.234 0.461815ZM32.0072 0.461815C32.9629 0.461815 33.9647 0.508053 35.0128 0.600531L34.6891 3.97597C33.9955 3.8989 33.4869 3.86037 33.1632 3.86037C32.855 3.86037 32.7008 3.99909 32.7008 4.27652V4.69267H34.5966L34.4117 7.55948H32.7471V15.4432H28.8861V7.55948H27.8689V4.69267H28.8861V3.5367C28.8861 1.48678 29.9265 0.461815 32.0072 0.461815ZM35.1276 12.9001V0.62365H38.9424V11.6747C38.9424 11.9368 38.9963 12.1217 39.1042 12.2296C39.2275 12.3375 39.4356 12.3914 39.7284 12.3914L39.4279 15.6744H38.1563C37.139 15.6744 36.3761 15.4663 35.8675 15.0502C35.3743 14.6186 35.1276 13.9019 35.1276 12.9001ZM45.1476 7.39764C44.7468 7.39764 44.4848 7.53636 44.3615 7.81379C44.2382 8.07581 44.1766 8.48426 44.1766 9.03912H46.1879V8.48426C46.1879 7.75985 45.8412 7.39764 45.1476 7.39764ZM45.2401 4.09156C46.8276 4.09156 47.9604 4.47689 48.6386 5.24754C49.3322 6.00277 49.679 7.08938 49.679 8.50738C49.679 8.69233 49.625 9.52463 49.5171 11.0043H44.2459C44.2459 12.1602 44.7777 12.7382 45.8412 12.7382C46.3498 12.7382 47.3439 12.561 48.8236 12.2065L49.1472 15.0733C47.8525 15.474 46.5579 15.6744 45.2632 15.6744C43.6756 15.6744 42.458 15.1581 41.6103 14.1254C40.7626 13.0773 40.3387 11.6593 40.3387 9.87142C40.3387 6.01818 41.9725 4.09156 45.2401 4.09156ZM51.7917 13.8711C51.7917 13.2546 51.9535 12.7999 52.2772 12.507C52.6009 12.1988 53.1172 12.0447 53.8262 12.0447C54.5352 12.0447 55.0515 12.1988 55.3752 12.507C55.6989 12.7999 55.8607 13.27 55.8607 13.9173C55.8607 15.1041 55.1826 15.6975 53.8262 15.6975C52.4699 15.6975 51.7917 15.0887 51.7917 13.8711ZM57.5923 12.9001V0.62365H61.407V11.6747C61.407 11.9368 61.461 12.1217 61.5689 12.2296C61.6922 12.3375 61.9003 12.3914 62.1931 12.3914L61.8925 15.6744H60.621C59.6037 15.6744 58.8408 15.4663 58.3322 15.0502C57.8389 14.6186 57.5923 13.9019 57.5923 12.9001ZM71.3345 7.25893L71.2189 12.0447C71.2189 12.3375 71.2882 12.5379 71.427 12.6458C71.5811 12.7382 71.8354 12.7845 72.1899 12.7845L71.8431 15.5819C70.9492 15.6436 70.4559 15.6744 70.3635 15.6744C69.2229 15.6744 68.4985 15.2814 68.1902 14.4953H68.0746C67.5044 15.2814 66.6258 15.6744 65.439 15.6744C64.5297 15.6744 63.8284 15.3816 63.3352 14.7959C62.8574 14.2102 62.6185 13.4087 62.6185 12.3914C62.6185 11.1122 63.0115 10.2259 63.7976 9.73271C64.599 9.23949 65.8552 8.91582 67.566 8.76169V8.20682C67.566 7.77526 67.3502 7.55948 66.9187 7.55948C66.1789 7.55948 65.0229 7.78297 63.4508 8.22994L62.8728 4.85451C64.8456 4.34588 66.4871 4.09156 67.7972 4.09156C69.1073 4.09156 70.0244 4.34588 70.5484 4.85451C71.0725 5.36313 71.3345 6.16461 71.3345 7.25893ZM66.8724 12.9694C67.4427 12.9694 67.7279 12.6689 67.7279 12.0678V10.9349C67.1576 11.012 66.7491 11.1353 66.5025 11.3048C66.2713 11.459 66.1557 11.7287 66.1557 12.114C66.1557 12.6843 66.3946 12.9694 66.8724 12.9694ZM76.9189 5.17818C77.7666 4.45377 78.6991 4.09156 79.7164 4.09156C80.7336 4.09156 81.4426 4.33047 81.8434 4.80827C82.2595 5.27066 82.4676 5.97195 82.4676 6.91214V15.4432H78.5373V8.22994C78.5373 7.84462 78.3677 7.65196 78.0286 7.65196C77.5971 7.65196 77.2349 7.75985 76.942 7.97563V15.4432H73.058V4.369H76.5952L76.8264 5.17818H76.9189ZM93.6527 15.5819L92.1037 15.6744C90.9169 15.6744 90.1925 15.2814 89.9305 14.4953H89.8149C89.3062 15.2814 88.5279 15.6744 87.4798 15.6744C86.0926 15.6744 85.1139 15.1889 84.5436 14.2179C83.9888 13.2469 83.7113 11.8057 83.7113 9.89454C83.7113 7.96792 84.0273 6.51911 84.6592 5.54809C85.2912 4.57707 86.2005 4.09156 87.3873 4.09156C88.2042 4.09156 88.8361 4.28423 89.2831 4.66955V0.62365H93.1441V12.0447C93.1441 12.3375 93.2057 12.5379 93.329 12.6458C93.4523 12.7382 93.6758 12.7845 93.9995 12.7845L93.6527 15.5819ZM88.4046 7.3514C88.0809 7.3514 87.8651 7.55177 87.7572 7.95251C87.6493 8.33783 87.5954 8.90041 87.5954 9.64023C87.5954 10.3646 87.6031 10.8579 87.6185 11.1199C87.6339 11.3819 87.6648 11.6516 87.711 11.9291C87.7726 12.1911 87.8574 12.376 87.9653 12.4839C88.0886 12.5764 88.2813 12.6226 88.5433 12.6226C88.8207 12.6226 89.1059 12.5533 89.3987 12.4146V7.62884C89.075 7.44388 88.7437 7.3514 88.4046 7.3514Z" fill="white"/>
</svg>
